<?xml version="1.0" encoding="UTF-8" standalone="no"?>
<svg
   xmlns:dc="http://purl.org/dc/elements/1.1/"
   xmlns:cc="http://creativecommons.org/ns#"
   xmlns:rdf="http://www.w3.org/1999/02/22-rdf-syntax-ns#"
   xmlns:svg="http://www.w3.org/2000/svg"
   xmlns="http://www.w3.org/2000/svg"
   xmlns:sodipodi="http://sodipodi.sourceforge.net/DTD/sodipodi-0.dtd"
   xmlns:inkscape="http://www.inkscape.org/namespaces/inkscape"
   width="1024"
   height="1024"
   viewBox="0 0 270.93333 270.93334"
   version="1.1"
   id="svg8"
   sodipodi:docname="icon.svg"
   inkscape:version="0.92.5 (2060ec1f9f, 2020-04-08)"
   inkscape:export-filename="/mnt/B4D0D63BD0D60410/Tvorba/stepslow/assets/icon.png"
   inkscape:export-xdpi="96"
   inkscape:export-ydpi="96">
  <sodipodi:namedview
     pagecolor="#ffffff"
     bordercolor="#666666"
     borderopacity="1"
     objecttolerance="10"
     gridtolerance="10"
     guidetolerance="10"
     inkscape:pageopacity="0"
     inkscape:pageshadow="2"
     inkscape:window-width="1299"
     inkscape:window-height="713"
     id="namedview21"
     showgrid="false"
     inkscape:zoom="0.45254834"
     inkscape:cx="542.07347"
     inkscape:cy="522.87027"
     inkscape:window-x="67"
     inkscape:window-y="27"
     inkscape:window-maximized="1"
     inkscape:current-layer="svg8"
     inkscape:pagecheckerboard="false" />
  <defs
     id="defs2">
    <clipPath
       clipPathUnits="userSpaceOnUse"
       id="clipPath4830">
      <path
         style="fill:#34495e;fill-opacity:1;stroke-width:1.66741765"
         d="M 488,24 A 464.00001,464.00001 0 0 0 24,488 464.00001,464.00001 0 0 0 488,952 464.00001,464.00001 0 0 0 952,488 464.00001,464.00001 0 0 0 488,24 Z m 0,280 a 184,184 0 0 1 18.36914,0.91992 184,184 0 0 1 18.18555,2.74805 184,184 0 0 1 17.82031,4.55078 184,184 0 0 1 17.27734,6.30664 184,184 0 0 1 16.5625,8 184,184 0 0 1 15.67969,9.61328 184,184 0 0 1 14.64063,11.13086 184,184 0 0 1 13.45898,12.53711 184,184 0 0 1 12.13867,13.81641 184,184 0 0 1 10.69727,14.96093 184,184 0 0 1 9.15234,15.95508 184,184 0 0 1 7.51367,16.78711 184,184 0 0 1 5.79883,17.45313 184,184 0 0 1 4.02735,17.94726 184,184 0 0 1 2.21679,18.25782 A 184,184 0 0 1 672,488 a 184,184 0 0 1 -0.91992,18.36914 184,184 0 0 1 -2.74805,18.18555 184,184 0 0 1 -4.55078,17.82031 184,184 0 0 1 -6.30664,17.27734 184,184 0 0 1 -8,16.5625 184,184 0 0 1 -9.61328,15.67969 184,184 0 0 1 -11.13086,14.64063 184,184 0 0 1 -12.53711,13.45898 184,184 0 0 1 -13.81641,12.13867 184,184 0 0 1 -14.96093,10.69727 184,184 0 0 1 -15.95508,9.15234 184,184 0 0 1 -16.78711,7.51367 184,184 0 0 1 -17.45313,5.79883 184,184 0 0 1 -17.94726,4.02735 184,184 0 0 1 -18.25782,2.21679 A 184,184 0 0 1 488,672 a 184,184 0 0 1 -18.36914,-0.91992 184,184 0 0 1 -18.18555,-2.74805 184,184 0 0 1 -17.82031,-4.55078 184,184 0 0 1 -17.27734,-6.30664 184,184 0 0 1 -16.5625,-8 184,184 0 0 1 -15.67969,-9.61328 184,184 0 0 1 -14.64063,-11.13086 184,184 0 0 1 -13.45898,-12.53711 184,184 0 0 1 -12.13867,-13.81641 184,184 0 0 1 -10.69727,-14.96093 184,184 0 0 1 -9.15234,-15.95508 184,184 0 0 1 -7.51367,-16.78711 184,184 0 0 1 -5.79883,-17.45313 184,184 0 0 1 -4.02735,-17.94726 184,184 0 0 1 -2.21679,-18.25782 A 184,184 0 0 1 304,488 a 184,184 0 0 1 0.91992,-18.36914 184,184 0 0 1 2.74805,-18.18555 184,184 0 0 1 4.55078,-17.82031 184,184 0 0 1 6.30664,-17.27734 184,184 0 0 1 8,-16.5625 184,184 0 0 1 9.61328,-15.67969 184,184 0 0 1 11.13086,-14.64063 184,184 0 0 1 12.53711,-13.45898 184,184 0 0 1 13.81641,-12.13867 184,184 0 0 1 14.96093,-10.69727 184,184 0 0 1 15.95508,-9.15234 184,184 0 0 1 16.78711,-7.51367 184,184 0 0 1 17.45313,-5.79883 184,184 0 0 1 17.94726,-4.02735 184,184 0 0 1 18.25782,-2.21679 A 184,184 0 0 1 488,304 Z"
         id="path4832" />
    </clipPath>
    <filter
       style="color-interpolation-filters:sRGB"
       id="filter4953"
       x="-0.024"
       width="1.048"
       y="-0.024"
       height="1.048">
      <feGaussianBlur
         stdDeviation="9.76"
         id="feGaussianBlur4955" />
    </filter>
  </defs>
  <metadata
     id="metadata5">
    <rdf:RDF>
      <cc:Work
         rdf:about="">
        <dc:format>image/svg+xml</dc:format>
        <dc:type
           rdf:resource="http://purl.org/dc/dcmitype/StillImage" />
        <dc:title />
      </cc:Work>
    </rdf:RDF>
  </metadata>
  <g
     id="g3772">
    <path
       inkscape:connector-curvature="0"
       id="path4947"
       transform="matrix(0.25232293,0,0,0.25232283,18.75575,19.132609)"
       d="M 488,0 A 488,488 0 0 0 0,488 488,488 0 0 0 488,976 488,488 0 0 0 976,488 488,488 0 0 0 488,0 Z m 0,328 A 160,160 0 0 1 648,488 160,160 0 0 1 488,648 160,160 0 0 1 328,488 160,160 0 0 1 488,328 Z"
       style="opacity:0.18999999;fill:#000000;fill-opacity:1;stroke-width:1.11114264;filter:url(#filter4953)" />
    <g
       id="g3763">
      <ellipse
         ry="119.73025"
         rx="119.73038"
         cy="135.70572"
         cx="135.83365"
         id="path885"
         style="opacity:1;fill:#f80a0f;fill-opacity:1;stroke:#ffffff;stroke-width:6.80652857;stroke-linecap:butt;stroke-linejoin:miter;stroke-miterlimit:4;stroke-dasharray:none;stroke-opacity:1;paint-order:normal" />
      <path
         style="fill:#ff8080;fill-opacity:1;stroke-width:0.99999994"
         d="M -157.5,-51 V 354.79297 L 3.0820312,134.41797 487.95117,487.73047 152.79102,-9.5390625 214.30664,-51 Z M 848.40625,-51 926.41016,64.732422 1122.5,207.61914 V -51 Z M 487.98633,487.7832 487.67578,488.21094 811.72852,969 H 1122.5 V 635.73633 L 972.91797,841.01562 488.30273,487.88672 488.13281,488 Z M -157.5,759.79883 V 969 H 88.166016 L 48.179688,909.67188 Z"
         transform="matrix(0.23570946,-0.0206219,0.0206219,0.23570938,10.743892,30.743059)"
         id="path4985"
         clip-path="url(#clipPath4830)"
         inkscape:connector-curvature="0" />
      <path
         transform="matrix(0.23660983,0,0,0.23660974,20.368,20.240191)"
         clip-path="url(#clipPath4830)"
         id="rect4811"
         d="M -157.5,-51 V 354.79297 L 3.0820312,134.41797 487.95117,487.73047 152.79102,-9.5390625 214.30664,-51 Z M 848.40625,-51 926.41016,64.732422 1122.5,207.61914 V -51 Z M 487.98633,487.7832 487.67578,488.21094 811.72852,969 H 1122.5 V 635.73633 L 972.91797,841.01562 488.30273,487.88672 488.13281,488 Z M -157.5,759.79883 V 969 H 88.166016 L 48.179688,909.67188 Z"
         style="fill:#ff8080;fill-opacity:1;stroke-width:0.99999994"
         inkscape:connector-curvature="0" />
      <path
         id="path4987"
         d="m 135.83346,88.905453 a 46.800455,46.800438 0 0 0 -46.800466,46.800457 46.800455,46.800438 0 0 0 46.800466,46.80042 46.800455,46.800438 0 0 0 46.80045,-46.80042 46.800455,46.800438 0 0 0 -46.80045,-46.800457 z m 0,42.412907 a 4.3875426,4.387541 0 0 1 0.43816,0.0217 4.3875426,4.387541 0 0 1 0.43363,0.0656 4.3875426,4.387541 0 0 1 0.42504,0.10856 4.3875426,4.387541 0 0 1 0.4119,0.15025 4.3875426,4.387541 0 0 1 0.39477,0.19082 4.3875426,4.387541 0 0 1 0.37363,0.22909 4.3875426,4.387541 0 0 1 0.34962,0.26565 4.3875426,4.387541 0 0 1 0.3205,0.29878 4.3875426,4.387541 0 0 1 0.28965,0.32965 4.3875426,4.387541 0 0 1 0.25536,0.35648 4.3875426,4.387541 0 0 1 0.21767,0.38047 4.3875426,4.387541 0 0 1 0.17938,0.40049 4.3875426,4.387541 0 0 1 0.13826,0.41648 4.3875426,4.387541 0 0 1 0.096,0.42789 4.3875426,4.387541 0 0 1 0.0533,0.43533 4.3875426,4.387541 0 0 1 0.0111,0.31022 4.3875426,4.387541 0 0 1 -0.0217,0.43817 4.3875426,4.387541 0 0 1 -0.0656,0.43363 4.3875426,4.387541 0 0 1 -0.10856,0.42503 4.3875426,4.387541 0 0 1 -0.15026,0.41191 4.3875426,4.387541 0 0 1 -0.19081,0.39476 4.3875426,4.387541 0 0 1 -0.22909,0.37363 4.3875426,4.387541 0 0 1 -0.26565,0.34963 4.3875426,4.387541 0 0 1 -0.29878,0.3205 4.3875426,4.387541 0 0 1 -0.32965,0.28964 4.3875426,4.387541 0 0 1 -0.35648,0.25537 4.3875426,4.387541 0 0 1 -0.38047,0.21767 4.3875426,4.387541 0 0 1 -0.40049,0.17937 4.3875426,4.387541 0 0 1 -0.41648,0.13826 4.3875426,4.387541 0 0 1 -0.42789,0.096 4.3875426,4.387541 0 0 1 -0.43533,0.0532 4.3875426,4.387541 0 0 1 -0.31021,0.0111 4.3875426,4.387541 0 0 1 -0.43818,-0.0217 4.3875426,4.387541 0 0 1 -0.43363,-0.0656 4.3875426,4.387541 0 0 1 -0.42504,-0.10857 4.3875426,4.387541 0 0 1 -0.4119,-0.15024 4.3875426,4.387541 0 0 1 -0.39477,-0.19082 4.3875426,4.387541 0 0 1 -0.37363,-0.22908 4.3875426,4.387541 0 0 1 -0.34962,-0.26566 4.3875426,4.387541 0 0 1 -0.3205,-0.29877 4.3875426,4.387541 0 0 1 -0.28964,-0.32965 4.3875426,4.387541 0 0 1 -0.2548,-0.35649 4.3875426,4.387541 0 0 1 -0.21824,-0.38048 4.3875426,4.387541 0 0 1 -0.17938,-0.40047 4.3875426,4.387541 0 0 1 -0.13825,-0.41648 4.3875426,4.387541 0 0 1 -0.096,-0.4279 4.3875426,4.387541 0 0 1 -0.0532,-0.43533 4.3875426,4.387541 0 0 1 -0.0111,-0.31021 4.3875426,4.387541 0 0 1 0.0217,-0.43818 4.3875426,4.387541 0 0 1 0.0656,-0.43362 4.3875426,4.387541 0 0 1 0.10856,-0.42504 4.3875426,4.387541 0 0 1 0.15026,-0.41191 4.3875426,4.387541 0 0 1 0.19081,-0.39476 4.3875426,4.387541 0 0 1 0.22908,-0.37363 4.3875426,4.387541 0 0 1 0.26565,-0.34962 4.3875426,4.387541 0 0 1 0.29878,-0.32051 4.3875426,4.387541 0 0 1 0.32965,-0.28964 4.3875426,4.387541 0 0 1 0.35649,-0.25479 4.3875426,4.387541 0 0 1 0.38047,-0.21825 4.3875426,4.387541 0 0 1 0.40048,-0.17938 4.3875426,4.387541 0 0 1 0.41648,-0.13826 4.3875426,4.387541 0 0 1 0.4279,-0.0959 4.3875426,4.387541 0 0 1 0.43533,-0.0532 4.3875426,4.387541 0 0 1 0.31023,-0.0111 z"
         style="fill:#f80a0f;fill-opacity:1;stroke-width:0.41482043"
         inkscape:connector-curvature="0" />
      <path
         style="fill:#ffffff;fill-opacity:1;stroke-width:0.33555433"
         d="M 135.8336,97.848182 A 37.857573,37.85756 0 0 0 97.976024,135.70575 37.857573,37.85756 0 0 0 135.8336,173.56331 37.857573,37.85756 0 0 0 173.69117,135.70575 37.857573,37.85756 0 0 0 135.8336,97.848182 Z m 0,34.308418 a 3.5491474,3.5491462 0 0 1 0.35445,0.0175 3.5491474,3.5491462 0 0 1 0.35076,0.0532 3.5491474,3.5491462 0 0 1 0.34382,0.0878 3.5491474,3.5491462 0 0 1 0.3332,0.12154 3.5491474,3.5491462 0 0 1 0.31932,0.15435 3.5491474,3.5491462 0 0 1 0.30224,0.18531 3.5491474,3.5491462 0 0 1 0.28281,0.2149 3.5491474,3.5491462 0 0 1 0.25926,0.24168 3.5491474,3.5491462 0 0 1 0.23431,0.26666 3.5491474,3.5491462 0 0 1 0.20656,0.28836 3.5491474,3.5491462 0 0 1 0.17607,0.30778 3.5491474,3.5491462 0 0 1 0.14511,0.32395 3.5491474,3.5491462 0 0 1 0.11184,0.3369 3.5491474,3.5491462 0 0 1 0.0776,0.34613 3.5491474,3.5491462 0 0 1 0.043,0.35214 3.5491474,3.5491462 0 0 1 0.009,0.25095 3.5491474,3.5491462 0 0 1 -0.0175,0.35444 3.5491474,3.5491462 0 0 1 -0.0531,0.35076 3.5491474,3.5491462 0 0 1 -0.0878,0.34382 3.5491474,3.5491462 0 0 1 -0.12154,0.3332 3.5491474,3.5491462 0 0 1 -0.15435,0.31933 3.5491474,3.5491462 0 0 1 -0.18531,0.30224 3.5491474,3.5491462 0 0 1 -0.21489,0.28281 3.5491474,3.5491462 0 0 1 -0.24169,0.25926 3.5491474,3.5491462 0 0 1 -0.26665,0.2343 3.5491474,3.5491462 0 0 1 -0.28837,0.20656 3.5491474,3.5491462 0 0 1 -0.30777,0.17608 3.5491474,3.5491462 0 0 1 -0.32396,0.1451 3.5491474,3.5491462 0 0 1 -0.3369,0.11184 3.5491474,3.5491462 0 0 1 -0.34612,0.0776 3.5491474,3.5491462 0 0 1 -0.35215,0.043 3.5491474,3.5491462 0 0 1 -0.25093,0.009 3.5491474,3.5491462 0 0 1 -0.35446,-0.0175 3.5491474,3.5491462 0 0 1 -0.35076,-0.0532 3.5491474,3.5491462 0 0 1 -0.34382,-0.0878 3.5491474,3.5491462 0 0 1 -0.3332,-0.12153 3.5491474,3.5491462 0 0 1 -0.31932,-0.15435 3.5491474,3.5491462 0 0 1 -0.30224,-0.18532 3.5491474,3.5491462 0 0 1 -0.28282,-0.2149 3.5491474,3.5491462 0 0 1 -0.25925,-0.24168 3.5491474,3.5491462 0 0 1 -0.2343,-0.26665 3.5491474,3.5491462 0 0 1 -0.2061,-0.28837 3.5491474,3.5491462 0 0 1 -0.17655,-0.30777 3.5491474,3.5491462 0 0 1 -0.1451,-0.32396 3.5491474,3.5491462 0 0 1 -0.11184,-0.33689 3.5491474,3.5491462 0 0 1 -0.0776,-0.34613 3.5491474,3.5491462 0 0 1 -0.043,-0.35215 3.5491474,3.5491462 0 0 1 -0.009,-0.25093 3.5491474,3.5491462 0 0 1 0.0175,-0.35446 3.5491474,3.5491462 0 0 1 0.0532,-0.35075 3.5491474,3.5491462 0 0 1 0.0878,-0.34383 3.5491474,3.5491462 0 0 1 0.12154,-0.33319 3.5491474,3.5491462 0 0 1 0.15436,-0.31933 3.5491474,3.5491462 0 0 1 0.1853,-0.30224 3.5491474,3.5491462 0 0 1 0.2149,-0.28281 3.5491474,3.5491462 0 0 1 0.24168,-0.25926 3.5491474,3.5491462 0 0 1 0.26666,-0.2343 3.5491474,3.5491462 0 0 1 0.28836,-0.2061 3.5491474,3.5491462 0 0 1 0.30778,-0.17655 3.5491474,3.5491462 0 0 1 0.32395,-0.1451 3.5491474,3.5491462 0 0 1 0.33689,-0.11183 3.5491474,3.5491462 0 0 1 0.34614,-0.0776 3.5491474,3.5491462 0 0 1 0.35214,-0.043 3.5491474,3.5491462 0 0 1 0.25095,-0.009 z"
         id="path4838"
         inkscape:connector-curvature="0" />
    </g>
  </g>
</svg>
