<?xml version="1.0" encoding="UTF-8" standalone="no"?>
<svg
   xmlns:dc="http://purl.org/dc/elements/1.1/"
   xmlns:cc="http://creativecommons.org/ns#"
   xmlns:rdf="http://www.w3.org/1999/02/22-rdf-syntax-ns#"
   xmlns:svg="http://www.w3.org/2000/svg"
   xmlns="http://www.w3.org/2000/svg"
   xmlns:sodipodi="http://sodipodi.sourceforge.net/DTD/sodipodi-0.dtd"
   xmlns:inkscape="http://www.inkscape.org/namespaces/inkscape"
   width="1024"
   height="1024"
   viewBox="0 0 270.93333 270.93334"
   version="1.1"
   id="svg8"
   sodipodi:docname="logo.svg"
   inkscape:version="0.92.5 (2060ec1f9f, 2020-04-08)"
   inkscape:export-filename="/mnt/B4D0D63BD0D60410/Tvorba/stepslow/assets/logo.png"
   inkscape:export-xdpi="96"
   inkscape:export-ydpi="96">
  <sodipodi:namedview
     pagecolor="#ffffff"
     bordercolor="#666666"
     borderopacity="1"
     objecttolerance="10"
     gridtolerance="10"
     guidetolerance="10"
     inkscape:pageopacity="0"
     inkscape:pageshadow="2"
     inkscape:window-width="1299"
     inkscape:window-height="713"
     id="namedview21"
     showgrid="false"
     inkscape:zoom="0.5"
     inkscape:cx="815.45361"
     inkscape:cy="512"
     inkscape:window-x="67"
     inkscape:window-y="27"
     inkscape:window-maximized="1"
     inkscape:current-layer="svg8" />
  <defs
     id="defs2">
    <clipPath
       clipPathUnits="userSpaceOnUse"
       id="clipPath4830">
      <path
         style="fill:#34495e;fill-opacity:1;stroke-width:1.66741765"
         d="M 488,24 A 464.00001,464.00001 0 0 0 24,488 464.00001,464.00001 0 0 0 488,952 464.00001,464.00001 0 0 0 952,488 464.00001,464.00001 0 0 0 488,24 Z m 0,280 a 184,184 0 0 1 18.36914,0.91992 184,184 0 0 1 18.18555,2.74805 184,184 0 0 1 17.82031,4.55078 184,184 0 0 1 17.27734,6.30664 184,184 0 0 1 16.5625,8 184,184 0 0 1 15.67969,9.61328 184,184 0 0 1 14.64063,11.13086 184,184 0 0 1 13.45898,12.53711 184,184 0 0 1 12.13867,13.81641 184,184 0 0 1 10.69727,14.96093 184,184 0 0 1 9.15234,15.95508 184,184 0 0 1 7.51367,16.78711 184,184 0 0 1 5.79883,17.45313 184,184 0 0 1 4.02735,17.94726 184,184 0 0 1 2.21679,18.25782 A 184,184 0 0 1 672,488 a 184,184 0 0 1 -0.91992,18.36914 184,184 0 0 1 -2.74805,18.18555 184,184 0 0 1 -4.55078,17.82031 184,184 0 0 1 -6.30664,17.27734 184,184 0 0 1 -8,16.5625 184,184 0 0 1 -9.61328,15.67969 184,184 0 0 1 -11.13086,14.64063 184,184 0 0 1 -12.53711,13.45898 184,184 0 0 1 -13.81641,12.13867 184,184 0 0 1 -14.96093,10.69727 184,184 0 0 1 -15.95508,9.15234 184,184 0 0 1 -16.78711,7.51367 184,184 0 0 1 -17.45313,5.79883 184,184 0 0 1 -17.94726,4.02735 184,184 0 0 1 -18.25782,2.21679 A 184,184 0 0 1 488,672 a 184,184 0 0 1 -18.36914,-0.91992 184,184 0 0 1 -18.18555,-2.74805 184,184 0 0 1 -17.82031,-4.55078 184,184 0 0 1 -17.27734,-6.30664 184,184 0 0 1 -16.5625,-8 184,184 0 0 1 -15.67969,-9.61328 184,184 0 0 1 -14.64063,-11.13086 184,184 0 0 1 -13.45898,-12.53711 184,184 0 0 1 -12.13867,-13.81641 184,184 0 0 1 -10.69727,-14.96093 184,184 0 0 1 -9.15234,-15.95508 184,184 0 0 1 -7.51367,-16.78711 184,184 0 0 1 -5.79883,-17.45313 184,184 0 0 1 -4.02735,-17.94726 184,184 0 0 1 -2.21679,-18.25782 A 184,184 0 0 1 304,488 a 184,184 0 0 1 0.91992,-18.36914 184,184 0 0 1 2.74805,-18.18555 184,184 0 0 1 4.55078,-17.82031 184,184 0 0 1 6.30664,-17.27734 184,184 0 0 1 8,-16.5625 184,184 0 0 1 9.61328,-15.67969 184,184 0 0 1 11.13086,-14.64063 184,184 0 0 1 12.53711,-13.45898 184,184 0 0 1 13.81641,-12.13867 184,184 0 0 1 14.96093,-10.69727 184,184 0 0 1 15.95508,-9.15234 184,184 0 0 1 16.78711,-7.51367 184,184 0 0 1 17.45313,-5.79883 184,184 0 0 1 17.94726,-4.02735 184,184 0 0 1 18.25782,-2.21679 A 184,184 0 0 1 488,304 Z"
         id="path4832" />
    </clipPath>
    <filter
       style="color-interpolation-filters:sRGB"
       id="filter4953"
       x="-0.024"
       width="1.048"
       y="-0.024"
       height="1.048">
      <feGaussianBlur
         stdDeviation="9.76"
         id="feGaussianBlur4955" />
    </filter>
  </defs>
  <metadata
     id="metadata5">
    <rdf:RDF>
      <cc:Work
         rdf:about="">
        <dc:format>image/svg+xml</dc:format>
        <dc:type
           rdf:resource="http://purl.org/dc/dcmitype/StillImage" />
        <dc:title />
      </cc:Work>
    </rdf:RDF>
  </metadata>
  <g
     id="g50">
    <path
       inkscape:connector-curvature="0"
       id="path4947"
       transform="matrix(0.25232293,0,0,0.25232283,18.75575,19.132609)"
       d="M 488,0 A 488,488 0 0 0 0,488 488,488 0 0 0 488,976 488,488 0 0 0 976,488 488,488 0 0 0 488,0 Z m 0,328 A 160,160 0 0 1 648,488 160,160 0 0 1 488,648 160,160 0 0 1 328,488 160,160 0 0 1 488,328 Z"
       style="opacity:0.18999999;fill:#000000;fill-opacity:1;stroke-width:1.11114264;filter:url(#filter4953)" />
    <g
       id="g41">
      <ellipse
         ry="123.13351"
         rx="123.13364"
         cy="135.70572"
         cx="135.83363"
         id="path885"
         style="opacity:1;fill:#f80a0f;fill-opacity:1;stroke-width:0.66503114" />
      <path
         style="fill:#ff8080;fill-opacity:1;stroke-width:0.99999994"
         d="M -157.5,-51 V 354.79297 L 3.0820312,134.41797 487.95117,487.73047 152.79102,-9.5390625 214.30664,-51 Z M 848.40625,-51 926.41016,64.732422 1122.5,207.61914 V -51 Z M 487.98633,487.7832 487.67578,488.21094 811.72852,969 H 1122.5 V 635.73633 L 972.91797,841.01562 488.30273,487.88672 488.13281,488 Z M -157.5,759.79883 V 969 H 88.166016 L 48.179688,909.67188 Z"
         transform="matrix(0.25136275,-0.02199139,0.02199139,0.25136267,2.4367615,23.772563)"
         id="path4985"
         clip-path="url(#clipPath4830)"
         inkscape:connector-curvature="0" />
      <path
         transform="matrix(0.25232292,0,0,0.25232283,12.7,12.572207)"
         clip-path="url(#clipPath4830)"
         id="rect4811"
         d="M -157.5,-51 V 354.79297 L 3.0820312,134.41797 487.95117,487.73047 152.79102,-9.5390625 214.30664,-51 Z M 848.40625,-51 926.41016,64.732422 1122.5,207.61914 V -51 Z M 487.98633,487.7832 487.67578,488.21094 811.72852,969 H 1122.5 V 635.73633 L 972.91797,841.01562 488.30273,487.88672 488.13281,488 Z M -157.5,759.79883 V 969 H 88.166016 L 48.179688,909.67188 Z"
         style="fill:#ff8080;fill-opacity:1;stroke-width:0.99999994"
         inkscape:connector-curvature="0" />
      <path
         id="path4987"
         d="m 135.83344,85.79748 a 49.908439,49.908422 0 0 0 -49.908454,49.90844 49.908439,49.908422 0 0 0 49.908454,49.90841 49.908439,49.908422 0 0 0 49.90843,-49.90841 49.908439,49.908422 0 0 0 -49.90843,-49.90844 z m 0,45.22952 a 4.6789161,4.6789145 0 0 1 0.46726,0.0231 4.6789161,4.6789145 0 0 1 0.46242,0.07 4.6789161,4.6789145 0 0 1 0.45327,0.11577 4.6789161,4.6789145 0 0 1 0.43925,0.16022 4.6789161,4.6789145 0 0 1 0.42099,0.2035 4.6789161,4.6789145 0 0 1 0.39844,0.2443 4.6789161,4.6789145 0 0 1 0.37284,0.28329 4.6789161,4.6789145 0 0 1 0.34178,0.31862 4.6789161,4.6789145 0 0 1 0.30889,0.35154 4.6789161,4.6789145 0 0 1 0.27232,0.38016 4.6789161,4.6789145 0 0 1 0.23212,0.40574 4.6789161,4.6789145 0 0 1 0.1913,0.42708 4.6789161,4.6789145 0 0 1 0.14744,0.44414 4.6789161,4.6789145 0 0 1 0.10233,0.4563 4.6789161,4.6789145 0 0 1 0.0568,0.46425 4.6789161,4.6789145 0 0 1 0.0118,0.33082 4.6789161,4.6789145 0 0 1 -0.0231,0.46727 4.6789161,4.6789145 0 0 1 -0.07,0.46242 4.6789161,4.6789145 0 0 1 -0.11577,0.45326 4.6789161,4.6789145 0 0 1 -0.16023,0.43926 4.6789161,4.6789145 0 0 1 -0.20349,0.42098 4.6789161,4.6789145 0 0 1 -0.2443,0.39844 4.6789161,4.6789145 0 0 1 -0.28329,0.37285 4.6789161,4.6789145 0 0 1 -0.31862,0.34178 4.6789161,4.6789145 0 0 1 -0.35154,0.30888 4.6789161,4.6789145 0 0 1 -0.38016,0.27233 4.6789161,4.6789145 0 0 1 -0.40574,0.23212 4.6789161,4.6789145 0 0 1 -0.42708,0.19129 4.6789161,4.6789145 0 0 1 -0.44414,0.14744 4.6789161,4.6789145 0 0 1 -0.45631,0.10233 4.6789161,4.6789145 0 0 1 -0.46424,0.0567 4.6789161,4.6789145 0 0 1 -0.33081,0.0118 4.6789161,4.6789145 0 0 1 -0.46728,-0.0231 4.6789161,4.6789145 0 0 1 -0.46242,-0.07 4.6789161,4.6789145 0 0 1 -0.45327,-0.11578 4.6789161,4.6789145 0 0 1 -0.43925,-0.16022 4.6789161,4.6789145 0 0 1 -0.42099,-0.20349 4.6789161,4.6789145 0 0 1 -0.39844,-0.2443 4.6789161,4.6789145 0 0 1 -0.37284,-0.2833 4.6789161,4.6789145 0 0 1 -0.34178,-0.31861 4.6789161,4.6789145 0 0 1 -0.30888,-0.35154 4.6789161,4.6789145 0 0 1 -0.27172,-0.38016 4.6789161,4.6789145 0 0 1 -0.23273,-0.40575 4.6789161,4.6789145 0 0 1 -0.1913,-0.42707 4.6789161,4.6789145 0 0 1 -0.14743,-0.44414 4.6789161,4.6789145 0 0 1 -0.10233,-0.45631 4.6789161,4.6789145 0 0 1 -0.0567,-0.46424 4.6789161,4.6789145 0 0 1 -0.0118,-0.33081 4.6789161,4.6789145 0 0 1 0.0231,-0.46728 4.6789161,4.6789145 0 0 1 0.07,-0.46242 4.6789161,4.6789145 0 0 1 0.11577,-0.45327 4.6789161,4.6789145 0 0 1 0.16024,-0.43926 4.6789161,4.6789145 0 0 1 0.20348,-0.42098 4.6789161,4.6789145 0 0 1 0.2443,-0.39844 4.6789161,4.6789145 0 0 1 0.28329,-0.37284 4.6789161,4.6789145 0 0 1 0.31862,-0.34179 4.6789161,4.6789145 0 0 1 0.35154,-0.30888 4.6789161,4.6789145 0 0 1 0.38016,-0.27171 4.6789161,4.6789145 0 0 1 0.40574,-0.23274 4.6789161,4.6789145 0 0 1 0.42708,-0.19129 4.6789161,4.6789145 0 0 1 0.44414,-0.14744 4.6789161,4.6789145 0 0 1 0.45631,-0.10232 4.6789161,4.6789145 0 0 1 0.46424,-0.0567 4.6789161,4.6789145 0 0 1 0.33083,-0.0118 z"
         style="fill:#f80a0f;fill-opacity:1;stroke-width:0.44236836"
         inkscape:connector-curvature="0" />
      <path
         style="fill:#ffffff;fill-opacity:1;stroke-width:0.35783824"
         d="m 135.83359,95.33409 a 40.371667,40.371654 0 0 0 -40.371674,40.37166 40.371667,40.371654 0 0 0 40.371674,40.37166 40.371667,40.371654 0 0 0 40.37166,-40.37166 40.371667,40.371654 0 0 0 -40.37166,-40.37166 z m 0,36.58682 a 3.7848437,3.7848425 0 0 1 0.37798,0.0187 3.7848437,3.7848425 0 0 1 0.37406,0.0567 3.7848437,3.7848425 0 0 1 0.36665,0.0936 3.7848437,3.7848425 0 0 1 0.35533,0.12961 3.7848437,3.7848425 0 0 1 0.34053,0.1646 3.7848437,3.7848425 0 0 1 0.32231,0.19762 3.7848437,3.7848425 0 0 1 0.30159,0.22917 3.7848437,3.7848425 0 0 1 0.27648,0.25773 3.7848437,3.7848425 0 0 1 0.24986,0.28437 3.7848437,3.7848425 0 0 1 0.22028,0.30751 3.7848437,3.7848425 0 0 1 0.18777,0.32822 3.7848437,3.7848425 0 0 1 0.15474,0.34546 3.7848437,3.7848425 0 0 1 0.11927,0.35927 3.7848437,3.7848425 0 0 1 0.0828,0.36912 3.7848437,3.7848425 0 0 1 0.0459,0.37553 3.7848437,3.7848425 0 0 1 0.01,0.26761 3.7848437,3.7848425 0 0 1 -0.0187,0.37798 3.7848437,3.7848425 0 0 1 -0.0566,0.37405 3.7848437,3.7848425 0 0 1 -0.0936,0.36666 3.7848437,3.7848425 0 0 1 -0.12961,0.35532 3.7848437,3.7848425 0 0 1 -0.1646,0.34054 3.7848437,3.7848425 0 0 1 -0.19762,0.32231 3.7848437,3.7848425 0 0 1 -0.22916,0.30159 3.7848437,3.7848425 0 0 1 -0.25774,0.27648 3.7848437,3.7848425 0 0 1 -0.28436,0.24986 3.7848437,3.7848425 0 0 1 -0.30752,0.22028 3.7848437,3.7848425 0 0 1 -0.32821,0.18777 3.7848437,3.7848425 0 0 1 -0.34547,0.15474 3.7848437,3.7848425 0 0 1 -0.35927,0.11926 3.7848437,3.7848425 0 0 1 -0.36911,0.0828 3.7848437,3.7848425 0 0 1 -0.37554,0.0459 3.7848437,3.7848425 0 0 1 -0.26759,0.01 3.7848437,3.7848425 0 0 1 -0.378,-0.0187 3.7848437,3.7848425 0 0 1 -0.37405,-0.0567 3.7848437,3.7848425 0 0 1 -0.36666,-0.0936 3.7848437,3.7848425 0 0 1 -0.35532,-0.12961 3.7848437,3.7848425 0 0 1 -0.34053,-0.1646 3.7848437,3.7848425 0 0 1 -0.32231,-0.19762 3.7848437,3.7848425 0 0 1 -0.3016,-0.22917 3.7848437,3.7848425 0 0 1 -0.27647,-0.25773 3.7848437,3.7848425 0 0 1 -0.24986,-0.28436 3.7848437,3.7848425 0 0 1 -0.21979,-0.30752 3.7848437,3.7848425 0 0 1 -0.18827,-0.32821 3.7848437,3.7848425 0 0 1 -0.15474,-0.34547 3.7848437,3.7848425 0 0 1 -0.11926,-0.35927 3.7848437,3.7848425 0 0 1 -0.0828,-0.36911 3.7848437,3.7848425 0 0 1 -0.0459,-0.37554 3.7848437,3.7848425 0 0 1 -0.01,-0.26759 3.7848437,3.7848425 0 0 1 0.0187,-0.378 3.7848437,3.7848425 0 0 1 0.0567,-0.37405 3.7848437,3.7848425 0 0 1 0.0936,-0.36666 3.7848437,3.7848425 0 0 1 0.12961,-0.35532 3.7848437,3.7848425 0 0 1 0.16461,-0.34053 3.7848437,3.7848425 0 0 1 0.19761,-0.32231 3.7848437,3.7848425 0 0 1 0.22917,-0.3016 3.7848437,3.7848425 0 0 1 0.25773,-0.27647 3.7848437,3.7848425 0 0 1 0.28437,-0.24986 3.7848437,3.7848425 0 0 1 0.30751,-0.21979 3.7848437,3.7848425 0 0 1 0.32822,-0.18827 3.7848437,3.7848425 0 0 1 0.34546,-0.15474 3.7848437,3.7848425 0 0 1 0.35927,-0.11926 3.7848437,3.7848425 0 0 1 0.36912,-0.0828 3.7848437,3.7848425 0 0 1 0.37553,-0.0459 3.7848437,3.7848425 0 0 1 0.26761,-0.01 z"
         id="path4838"
         inkscape:connector-curvature="0" />
    </g>
  </g>
</svg>
